<svg id="Layer_1" data-name="Layer 1" xmlns="http://www.w3.org/2000/svg" viewBox="0 0 845.49 321.15"><defs><style>.cls-1{fill:#002f87;}.cls-2,.cls-3,.cls-4{font-size:149px;}.cls-2{fill:#fa4616;font-family:Palatino-Bold, Palatino;font-weight:700;}.cls-3,.cls-6{fill:#0021a5;}.cls-3{font-family:Palatino-Italic, Palatino;font-style:italic;letter-spacing:0.05em;}.cls-4{fill:#b1b3b6;font-family:Palatino-Roman, Palatino;letter-spacing:-0.03em;}.cls-5{opacity:0.7;}</style></defs><polyline class="cls-1" points="244.19 214.43 244.19 155.43 298.55 155.43 298.55 116.53 244.19 116.53 244.19 61.42 303.88 61.42 303.88 82.8 343.25 82.8 343.25 22.84 185.61 22.84 185.61 61.42 200.37 61.42 200.37 214.43 185.66 214.43 185.66 253.32 258.42 253.32 258.42 214.43 244.19 214.43"/><path class="cls-1" d="M167.19,166.22V61.41h14.56V22.85H108.84V61.41h14.21v91.77c0,38.47-4.44,57-32.06,57s-32.07-18.49-32.07-57V61.41H73V22.85H0V61.41H14.46V166.22c0,22.89,0,41.64,10.8,58.49,12.07,19.08,34,31.2,65.73,31.2,56.19,0,76.2-29.29,76.2-89.69"/><text class="cls-2" transform="translate(346.25 126.27)">CV</text><text class="cls-3" transform="translate(605.16 251.16)">Lab</text><text class="cls-4" transform="translate(552.26 126.26)">med</text><g class="cls-5"><path class="cls-6" d="M244.19,214.42l31.73-.83c5.27-.14,10.6-.23,15.83-.41a15.25,15.25,0,0,0,12.31-8.08l0,.05,6.78-16.72,1.69-4.18.42-1a10.48,10.48,0,0,1,.48-1.09,4.07,4.07,0,0,1,1.95-1.87,4.41,4.41,0,0,1,5,1c.15.18.28.38.42.56s.22.42.32.63l.39,1.06.79,2.11,12.59,33.82,1.56,4.23.79,2.11a10.15,10.15,0,0,0,.72,1.77A1.33,1.33,0,0,0,339,228a1.27,1.27,0,0,0,1-.55,9.86,9.86,0,0,0,.48-1.81l.5-2.2,4-17.59,7.93-35.19,2-8.79,1-4.4.49-2.2.13-.55.06-.27,0-.14.07-.22a3.62,3.62,0,0,1,.95-1.6,3.89,3.89,0,0,1,3.37-1,3.94,3.94,0,0,1,1.66.74,3.68,3.68,0,0,1,1.13,1.54,5,5,0,0,1,.21.85l.09.55.16,1.12.33,2.23,1.32,8.92,5.28,35.69,10.35,71.4-.28-.73a1.73,1.73,0,0,0,.73.26.38.38,0,0,0,.14,0s-.07,0-.28.17a1.17,1.17,0,0,0-.26.34.62.62,0,0,0-.07.23l0-.15.13-.6,1-4.82,2.05-9.63,4.1-19.26,8.2-38.53,2.05-9.63.51-2.41.26-1.2.06-.3a3.21,3.21,0,0,1,1.16-1.92,3.12,3.12,0,0,1,3.15-.31,2.91,2.91,0,0,1,1.3,1.18,3.49,3.49,0,0,1,.19.39,2.61,2.61,0,0,1,.11.3l.09.29.74,2.35,5.88,18.79L424.24,247l-3.62-.32,14.7-28.12h0a1.27,1.27,0,0,1,.13-.22,10.56,10.56,0,0,1,2.38-2.44,9.7,9.7,0,0,1,3.16-1.45,15.33,15.33,0,0,1,3.16-.45c1,0,1.89,0,2.85,0l11.18-.11,22.36-.21,11.19-.1,1.39,0c.45,0,1,0,1.32,0a9.87,9.87,0,0,0,4.43-1.43,9.11,9.11,0,0,0,.95-.68l1.06-.88,1.08-.89c.34-.29.63-.54.93-.84a12.82,12.82,0,0,0,1.58-1.87,13,13,0,0,0,1.19-2.13,16,16,0,0,0,.8-2.42l3-10.77L515.57,170l3-10.76,1.51-5.39.76-2.69.1-.33,0-.18c0-.12.09-.25.14-.37a3,3,0,0,1,1-1.27,3.16,3.16,0,0,1,3-.32,3,3,0,0,1,1.29,1,2.6,2.6,0,0,1,.4.73c0,.13.08.26.12.39l0,.18v.09l.22,1.38.44,2.76.89,5.52,1.75,11,3.47,22.1,6.92,44.21,3.47,22.1,1.73,11.05.43,2.73a1.63,1.63,0,0,0,1,1.22,2.09,2.09,0,0,0,1.73,0,1.54,1.54,0,0,0,.63-.5,1.68,1.68,0,0,0,.21-.37c0-.09.13-.35.21-.57l14.22-42.42,1.78-5.3.9-2.65.22-.66.06-.16a1.64,1.64,0,0,1,.14-.32,1.49,1.49,0,0,1,.51-.55,1.65,1.65,0,0,1,1.43-.17,1.59,1.59,0,0,1,.63.42,1.82,1.82,0,0,1,.32.5c1.64,3.33,3.33,6.65,5.08,9.93s3.57,6.52,5.51,9.68c1,1.57,2,3.12,3.08,4.59a23.79,23.79,0,0,0,1.74,2.09,8.47,8.47,0,0,0,1,.86,1.89,1.89,0,0,0,.87.4h.05l35.26.24,35.27.32-35.27.36-35.26.29h.06a2.76,2.76,0,0,1-1.69-.6,10,10,0,0,1-1.14-1,22.46,22.46,0,0,1-1.87-2.18c-1.16-1.5-2.21-3.06-3.22-4.64-2-3.16-3.89-6.41-5.7-9.68s-3.56-6.57-5.25-9.9c-.08-.15-.07-.11,0-.1a.1.1,0,0,0,0,0s0,0,.09,0,0,0,0,0,0,0,0,0l-.06.17-.21.66-.86,2.66-1.71,5.33-13.78,42.56a5.34,5.34,0,0,1-.75,1.6,4,4,0,0,1-1.5,1.24,4.44,4.44,0,0,1-3.69.06,4,4,0,0,1-1.56-1.16,4.19,4.19,0,0,1-.83-1.79l-.47-2.79-1.83-11L538,238.54l-7.32-44.14L527,172.34l-1.81-11-.9-5.52-.45-2.76-.22-1.38v-.09s0,0,0,0,0,0,0,.05a.42.42,0,0,0,.07.13.7.7,0,0,0,.18.15.28.28,0,0,0,.28-.05.46.46,0,0,0,.17-.2.06.06,0,0,0,0,0l0,.16-.1.34-.75,2.69-1.5,5.39-3,10.78-6,21.55-3,10.78a19.33,19.33,0,0,1-.95,2.88,16.46,16.46,0,0,1-1.53,2.75,17,17,0,0,1-2,2.4c-.37.36-.78.73-1.15,1l-1.07.9-1.09.91a12.25,12.25,0,0,1-1.32,1,13.44,13.44,0,0,1-2.93,1.36,13.2,13.2,0,0,1-3.17.63c-.61,0-1,0-1.48,0l-1.4,0-11.19.14-22.37.28-11.19.14c-.91,0-1.92,0-2.74.05a11.78,11.78,0,0,0-2.37.33,5.61,5.61,0,0,0-3.38,2.43l.13-.23-14.61,28.17a2,2,0,0,1-2.65.84,2,2,0,0,1-1-1.17l-11.73-37.59-5.83-18.81-.73-2.35-.09-.29c0-.09,0,0,0,0l.06.11a1,1,0,0,0,.4.37.76.76,0,0,0,.81-.09,1,1,0,0,0,.34-.46c0-.18,0,0,0,.12l-.06.3-.26,1.2-.52,2.41-2.08,9.62-8.31,38.49-4.16,19.24-2.07,9.63-1,4.81-.13.6,0,.15a4.4,4.4,0,0,1-.18.51,2.43,2.43,0,0,1-.63.83,2.89,2.89,0,0,1-1.38.68,4.63,4.63,0,0,1-1.09.07,5.27,5.27,0,0,1-1.84-.48,4.14,4.14,0,0,1-1.68-1.42,1.51,1.51,0,0,1-.27-.69v0l-10.13-71.43-5-35.72L361.61,159l-.31-2.23-.16-1.11-.07-.56a2.33,2.33,0,0,0-.06-.25.76.76,0,0,0-.18-.26,1.21,1.21,0,0,0-.38-.17,1,1,0,0,0-.82.19.77.77,0,0,0-.18.31l0,.05,0,.14-.07.27-.13.55-.51,2.2-1,4.39-2.07,8.78-8.24,35.12L343.22,224l-.51,2.2-.26,1.09a4.15,4.15,0,0,1-.53,1.39,3.54,3.54,0,0,1-5.68.24,4.15,4.15,0,0,1-.65-1.31l-.38-1.06-.77-2.12-1.52-4.24-12.14-34-.76-2.12-.37-1.06-.19-.38c-.09-.11-.16-.24-.25-.35a2.9,2.9,0,0,0-3.25-.68,2.65,2.65,0,0,0-1.26,1.17c-.13.22-.29.65-.43,1l-.44,1L312.08,189l-7,16.62h0l0,0A16.22,16.22,0,0,1,291.82,214c-5.35.11-10.6.11-15.9.17Z"/></g></svg>