<svg xmlns="http://www.w3.org/2000/svg" viewBox="0 0 93 61.42"><defs><style>.cls-1{fill:#1e354b;}.cls-2{fill:#4d7988;}</style></defs><g id="Layer_2" data-name="Layer 2"><circle class="cls-1" cx="46.36" cy="16.78" r="14.04"/><circle class="cls-2" cx="18.02" cy="18.55" r="8.11"/><circle class="cls-2" cx="74.52" cy="18.55" r="8.11"/><path class="cls-2" d="M27.73,33.06a8.31,8.31,0,0,0-5.54-2.13H14.06a8,8,0,0,0-7.94,7.94v4a4.19,4.19,0,0,0,4.18,4.18h8.18C18.87,41.84,22.46,36.13,27.73,33.06Z"/><path class="cls-2" d="M65,33.06a8.27,8.27,0,0,1,5.54-2.13h8.13a8,8,0,0,1,7.94,7.94v4a4.19,4.19,0,0,1-4.18,4.18H74.2C73.81,41.84,70.22,36.13,65,33.06Z"/><path class="cls-1" d="M56.25,35h-1.6a19.24,19.24,0,0,1-16.59,0H36.37a14.14,14.14,0,0,0-14.1,14.09v4a6,6,0,0,0,6,6H64.42a6,6,0,0,0,6-6V49.22A14.23,14.23,0,0,0,56.25,35Z"/></g></svg>