<svg xmlns="http://www.w3.org/2000/svg" viewBox="0 0 93 61.42"><defs><style>.cls-1{fill:#4d7988;}.cls-2{fill:#1e354b;}</style></defs><g id="Layer_2" data-name="Layer 2"><path class="cls-1" d="M76,1.59H17.1a6,6,0,0,0-5.94,5.94V45.37H81.88V7.53A6,6,0,0,0,76,1.59ZM73,38.06H20V8.75H73Z"/><path class="cls-2" d="M20,8.75V38.06H73V8.75Zm21.1,17.76c.68.57,1.82,1.37,1.78,2.18-.07,1.27-.79,1.52-1.38,2A4.2,4.2,0,0,1,39,32a2.68,2.68,0,0,1-1.71-.82l-6.57-5.42c-.7-.57-1.87-1.42-1.87-2.32s1.18-1.75,1.87-2.32l6.52-5.34A3.17,3.17,0,0,1,39,14.91a4.26,4.26,0,0,1,2.4,1.25c.19.14,1.43,1,1.43,2s-1.13,1.6-1.85,2.19l-3.69,3Zm21.23-.79-6.58,5.42A2.63,2.63,0,0,1,54,32a4.25,4.25,0,0,1-2.51-1.22c-.59-.53-1.31-.78-1.37-2,0-.81,1.09-1.61,1.78-2.18l3.76-3.1-3.7-3c-.72-.59-1.84-1.33-1.84-2.19s1.23-1.89,1.42-2A4.28,4.28,0,0,1,54,14.91a3.22,3.22,0,0,1,1.82.83l6.51,5.34c.7.57,1.87,1.42,1.87,2.32S63,25.15,62.29,25.72Z"/><path class="cls-2" d="M88.68,49H55a3.36,3.36,0,0,1-3.35,3.25H41.26A3.69,3.69,0,0,1,37.61,49H4.42A2.08,2.08,0,0,0,2.34,51.1V52A8,8,0,0,0,10.27,60H83.11a7.51,7.51,0,0,0,7.49-7.49V50.94A1.93,1.93,0,0,0,88.68,49Z"/></g></svg>